<?xml version="1.0"?>
<mxfile host="embed.diagrams.net" modified="2020-07-29T13:40:52.563Z" agent="5.0 (X11; Linux x86_64) AppleWebKit/537.36 (KHTML, like Gecko) Chrome/84.0.4147.105 Safari/537.36" etag="HM_DAUOCr3Fq7MYP90Ct" version="13.5.4" pages="5">
  <diagram id="jJyVJKc_XOLRE8fXVLzt" name="C">
    <mxGraphModel dx="2" dy="1" grid="1" gridSize="10" guides="1" tooltips="1" connect="1" arrows="1" fold="1" page="1" pageScale="1" pageWidth="1654" pageHeight="1169" math="1" shadow="0">
      <root>
        <mxCell id="EJBfui5_tGNSrQ5UJPhN-0"/>
        <mxCell id="EJBfui5_tGNSrQ5UJPhN-1" parent="EJBfui5_tGNSrQ5UJPhN-0"/>
        <mxCell id="EJBfui5_tGNSrQ5UJPhN-3" style="edgeStyle=orthogonalEdgeStyle;rounded=0;orthogonalLoop=1;jettySize=auto;html=1;strokeColor=#D79B00;strokeWidth=3;" parent="EJBfui5_tGNSrQ5UJPhN-1" source="EJBfui5_tGNSrQ5UJPhN-4" target="EJBfui5_tGNSrQ5UJPhN-19" edge="1">
          <mxGeometry relative="1" as="geometry">
            <mxPoint x="670.0000000000002" y="250.26000000000005" as="targetPoint"/>
          </mxGeometry>
        </mxCell>
        <mxCell id="EJBfui5_tGNSrQ5UJPhN-4" value="" style="ellipse;whiteSpace=wrap;html=1;aspect=fixed;fillColor=#d5e8d4;rotation=0;strokeColor=#82b366;" parent="EJBfui5_tGNSrQ5UJPhN-1" vertex="1">
          <mxGeometry x="509.78999999999985" y="240.05" width="20.42" height="20.42" as="geometry"/>
        </mxCell>
        <mxCell id="EJBfui5_tGNSrQ5UJPhN-6" value="" style="ellipse;whiteSpace=wrap;html=1;aspect=fixed;fillColor=#d5e8d4;strokeColor=#82b366;rotation=0;" parent="EJBfui5_tGNSrQ5UJPhN-1" vertex="1">
          <mxGeometry x="590" y="240.05" width="20.42" height="20.42" as="geometry"/>
        </mxCell>
        <mxCell id="EJBfui5_tGNSrQ5UJPhN-7" value="" style="ellipse;whiteSpace=wrap;html=1;aspect=fixed;fillColor=#d5e8d4;strokeColor=#82b366;rotation=0;" parent="EJBfui5_tGNSrQ5UJPhN-1" vertex="1">
          <mxGeometry x="909.9" y="240.05" width="20.42" height="20.42" as="geometry"/>
        </mxCell>
        <mxCell id="EJBfui5_tGNSrQ5UJPhN-8" value="" style="ellipse;whiteSpace=wrap;html=1;aspect=fixed;fillColor=#d5e8d4;strokeColor=#82b366;rotation=0;" parent="EJBfui5_tGNSrQ5UJPhN-1" vertex="1">
          <mxGeometry x="989.9" y="240.05" width="20.42" height="20.42" as="geometry"/>
        </mxCell>
        <mxCell id="EJBfui5_tGNSrQ5UJPhN-9" value="Start" style="text;html=1;strokeColor=none;fillColor=none;align=center;verticalAlign=middle;whiteSpace=wrap;rounded=0;" parent="EJBfui5_tGNSrQ5UJPhN-1" vertex="1">
          <mxGeometry x="499.99999999999994" y="210.05" width="40" height="20" as="geometry"/>
        </mxCell>
        <mxCell id="EJBfui5_tGNSrQ5UJPhN-10" value="Goal" style="text;html=1;strokeColor=none;fillColor=none;align=center;verticalAlign=middle;whiteSpace=wrap;rounded=0;" parent="EJBfui5_tGNSrQ5UJPhN-1" vertex="1">
          <mxGeometry x="980.11" y="210.05" width="40" height="20" as="geometry"/>
        </mxCell>
        <mxCell id="EJBfui5_tGNSrQ5UJPhN-11" value="1" style="text;html=1;strokeColor=none;fillColor=none;align=center;verticalAlign=middle;whiteSpace=wrap;rounded=0;" parent="EJBfui5_tGNSrQ5UJPhN-1" vertex="1">
          <mxGeometry x="499.99999999999994" y="260.4700000000001" width="40" height="20" as="geometry"/>
        </mxCell>
        <mxCell id="EJBfui5_tGNSrQ5UJPhN-12" value="2" style="text;html=1;strokeColor=none;fillColor=none;align=center;verticalAlign=middle;whiteSpace=wrap;rounded=0;" parent="EJBfui5_tGNSrQ5UJPhN-1" vertex="1">
          <mxGeometry x="580.21" y="260.4700000000001" width="40" height="20" as="geometry"/>
        </mxCell>
        <mxCell id="EJBfui5_tGNSrQ5UJPhN-13" value="3" style="text;html=1;strokeColor=none;fillColor=none;align=center;verticalAlign=middle;whiteSpace=wrap;rounded=0;" parent="EJBfui5_tGNSrQ5UJPhN-1" vertex="1">
          <mxGeometry x="660.21" y="260.4700000000001" width="40" height="20" as="geometry"/>
        </mxCell>
        <mxCell id="EJBfui5_tGNSrQ5UJPhN-14" value="4&lt;span style=&quot;color: rgba(0 , 0 , 0 , 0) ; font-family: monospace ; font-size: 0px&quot;&gt;%3CmxGraphModel%3E%3Croot%3E%3CmxCell%20id%3D%220%22%2F%3E%3CmxCell%20id%3D%221%22%20parent%3D%220%22%2F%3E%3CmxCell%20id%3D%222%22%20value%3D%221%22%20style%3D%22text%3Bhtml%3D1%3BstrokeColor%3Dnone%3BfillColor%3Dnone%3Balign%3Dcenter%3BverticalAlign%3Dmiddle%3BwhiteSpace%3Dwrap%3Brounded%3D0%3B%22%20vertex%3D%221%22%20parent%3D%221%22%3E%3CmxGeometry%20x%3D%22500%22%20y%3D%22370.42%22%20width%3D%2240%22%20height%3D%2220%22%20as%3D%22geometry%22%2F%3E%3C%2FmxCell%3E%3C%2Froot%3E%3C%2FmxGraphModel%3E&lt;/span&gt;" style="text;html=1;strokeColor=none;fillColor=none;align=center;verticalAlign=middle;whiteSpace=wrap;rounded=0;" parent="EJBfui5_tGNSrQ5UJPhN-1" vertex="1">
          <mxGeometry x="729.7900000000001" y="260.4700000000001" width="40" height="20" as="geometry"/>
        </mxCell>
        <mxCell id="EJBfui5_tGNSrQ5UJPhN-15" value="5" style="text;html=1;strokeColor=none;fillColor=none;align=center;verticalAlign=middle;whiteSpace=wrap;rounded=0;" parent="EJBfui5_tGNSrQ5UJPhN-1" vertex="1">
          <mxGeometry x="779.48" y="260.4700000000001" width="40" height="20" as="geometry"/>
        </mxCell>
        <mxCell id="EJBfui5_tGNSrQ5UJPhN-16" value="6" style="text;html=1;strokeColor=none;fillColor=none;align=center;verticalAlign=middle;whiteSpace=wrap;rounded=0;" parent="EJBfui5_tGNSrQ5UJPhN-1" vertex="1">
          <mxGeometry x="900.11" y="260.4700000000001" width="40" height="20" as="geometry"/>
        </mxCell>
        <mxCell id="EJBfui5_tGNSrQ5UJPhN-17" value="7" style="text;html=1;strokeColor=none;fillColor=none;align=center;verticalAlign=middle;whiteSpace=wrap;rounded=0;" parent="EJBfui5_tGNSrQ5UJPhN-1" vertex="1">
          <mxGeometry x="980.11" y="260.4700000000001" width="40" height="20" as="geometry"/>
        </mxCell>
        <mxCell id="EJBfui5_tGNSrQ5UJPhN-18" style="edgeStyle=orthogonalEdgeStyle;rounded=0;orthogonalLoop=1;jettySize=auto;html=1;strokeWidth=3;strokeColor=#FF0000;dashed=1;dashPattern=1 1;" parent="EJBfui5_tGNSrQ5UJPhN-1" source="EJBfui5_tGNSrQ5UJPhN-19" target="EJBfui5_tGNSrQ5UJPhN-20" edge="1">
          <mxGeometry relative="1" as="geometry">
            <Array as="points">
              <mxPoint x="680" y="210.05"/>
              <mxPoint x="800" y="210.05"/>
            </Array>
          </mxGeometry>
        </mxCell>
        <mxCell id="EJBfui5_tGNSrQ5UJPhN-19" value="?" style="ellipse;whiteSpace=wrap;html=1;aspect=fixed;fillColor=#d5e8d4;strokeColor=#82b366;rotation=0;fontColor=#FF0000;fontStyle=1" parent="EJBfui5_tGNSrQ5UJPhN-1" vertex="1">
          <mxGeometry x="670" y="240.05" width="20.42" height="20.42" as="geometry"/>
        </mxCell>
        <mxCell id="EJBfui5_tGNSrQ5UJPhN-20" value="?" style="ellipse;whiteSpace=wrap;html=1;aspect=fixed;fillColor=#d5e8d4;strokeColor=#82b366;rotation=0;fontColor=#FF0000;fontStyle=1" parent="EJBfui5_tGNSrQ5UJPhN-1" vertex="1">
          <mxGeometry x="789.27" y="240.05" width="20.42" height="20.42" as="geometry"/>
        </mxCell>
        <mxCell id="EJBfui5_tGNSrQ5UJPhN-21" value="" style="ellipse;whiteSpace=wrap;html=1;aspect=fixed;rotation=0;fillColor=#E6E6E6;strokeColor=#B3B3B3;" parent="EJBfui5_tGNSrQ5UJPhN-1" vertex="1">
          <mxGeometry x="739.48" y="240.05" width="20.42" height="20.42" as="geometry"/>
        </mxCell>
        <mxCell id="EJBfui5_tGNSrQ5UJPhN-22" value="" style="shape=curlyBracket;whiteSpace=wrap;html=1;rounded=1;rotation=-90;strokeColor=#B3B3B3;" parent="EJBfui5_tGNSrQ5UJPhN-1" vertex="1">
          <mxGeometry x="665.21" y="235.05" width="20" height="150" as="geometry"/>
        </mxCell>
        <mxCell id="EJBfui5_tGNSrQ5UJPhN-23" value="" style="shape=curlyBracket;whiteSpace=wrap;html=1;rounded=1;rotation=-90;size=0.5059999999999946;strokeColor=#B3B3B3;" parent="EJBfui5_tGNSrQ5UJPhN-1" vertex="1">
          <mxGeometry x="850.21" y="250.05" width="20" height="120" as="geometry"/>
        </mxCell>
        <mxCell id="EJBfui5_tGNSrQ5UJPhN-25" value="`150`" style="text;html=1;strokeColor=none;fillColor=none;align=center;verticalAlign=middle;whiteSpace=wrap;rounded=0;" parent="EJBfui5_tGNSrQ5UJPhN-1" vertex="1">
          <mxGeometry x="655.21" y="320.05" width="40" height="20" as="geometry"/>
        </mxCell>
        <mxCell id="EJBfui5_tGNSrQ5UJPhN-26" value="`120`" style="text;html=1;strokeColor=none;fillColor=none;align=center;verticalAlign=middle;whiteSpace=wrap;rounded=0;fontColor=#000000;" parent="EJBfui5_tGNSrQ5UJPhN-1" vertex="1">
          <mxGeometry x="840" y="320.05" width="40" height="20" as="geometry"/>
        </mxCell>
        <mxCell id="EJBfui5_tGNSrQ5UJPhN-57" value="" style="endArrow=none;html=1;strokeWidth=1;fontColor=#82B366;" parent="EJBfui5_tGNSrQ5UJPhN-1" edge="1">
          <mxGeometry width="50" height="50" relative="1" as="geometry">
            <mxPoint x="600" y="300.05" as="sourcePoint"/>
            <mxPoint x="600" y="290.4700000000001" as="targetPoint"/>
          </mxGeometry>
        </mxCell>
        <mxCell id="EJBfui5_tGNSrQ5UJPhN-58" value="" style="endArrow=none;html=1;strokeWidth=1;fontColor=#82B366;" parent="EJBfui5_tGNSrQ5UJPhN-1" edge="1">
          <mxGeometry width="50" height="50" relative="1" as="geometry">
            <mxPoint x="750.1599999999999" y="300.05" as="sourcePoint"/>
            <mxPoint x="750.3199999999993" y="290.4700000000001" as="targetPoint"/>
          </mxGeometry>
        </mxCell>
        <mxCell id="EJBfui5_tGNSrQ5UJPhN-59" value="" style="endArrow=classic;startArrow=classic;html=1;strokeWidth=1;fontColor=#82B366;entryX=0;entryY=0.5;entryDx=0;entryDy=0;strokeColor=#B3B3B3;" parent="EJBfui5_tGNSrQ5UJPhN-1" edge="1">
          <mxGeometry width="50" height="50" relative="1" as="geometry">
            <mxPoint x="600" y="295" as="sourcePoint"/>
            <mxPoint x="750.1599999999999" y="295.05" as="targetPoint"/>
          </mxGeometry>
        </mxCell>
        <mxCell id="EJBfui5_tGNSrQ5UJPhN-60" value="" style="endArrow=none;html=1;strokeWidth=1;fontColor=#82B366;" parent="EJBfui5_tGNSrQ5UJPhN-1" edge="1">
          <mxGeometry width="50" height="50" relative="1" as="geometry">
            <mxPoint x="800.1599999999999" y="299.83999999999975" as="sourcePoint"/>
            <mxPoint x="800.1599999999999" y="290.26000000000005" as="targetPoint"/>
          </mxGeometry>
        </mxCell>
        <mxCell id="EJBfui5_tGNSrQ5UJPhN-61" value="" style="endArrow=none;html=1;strokeWidth=1;fontColor=#82B366;" parent="EJBfui5_tGNSrQ5UJPhN-1" edge="1">
          <mxGeometry width="50" height="50" relative="1" as="geometry">
            <mxPoint x="920.3199999999993" y="299.83999999999975" as="sourcePoint"/>
            <mxPoint x="920.4799999999996" y="290.26000000000005" as="targetPoint"/>
          </mxGeometry>
        </mxCell>
        <mxCell id="EJBfui5_tGNSrQ5UJPhN-62" value="" style="endArrow=classic;startArrow=classic;html=1;strokeWidth=1;fontColor=#82B366;exitX=1;exitY=0.5;exitDx=0;exitDy=0;strokeColor=#B3B3B3;" parent="EJBfui5_tGNSrQ5UJPhN-1" edge="1">
          <mxGeometry width="50" height="50" relative="1" as="geometry">
            <mxPoint x="800.1599999999999" y="294.83999999999975" as="sourcePoint"/>
            <mxPoint x="920" y="295" as="targetPoint"/>
          </mxGeometry>
        </mxCell>
        <mxCell id="EJBfui5_tGNSrQ5UJPhN-72" style="edgeStyle=none;curved=1;orthogonalLoop=1;jettySize=auto;html=1;dashed=1;dashPattern=1 2;strokeWidth=1;fontColor=#82B366;" parent="EJBfui5_tGNSrQ5UJPhN-1" source="EJBfui5_tGNSrQ5UJPhN-73" target="EJBfui5_tGNSrQ5UJPhN-19" edge="1">
          <mxGeometry relative="1" as="geometry">
            <mxPoint x="720.847818120365" y="230.05494604449342" as="targetPoint"/>
            <Array as="points">
              <mxPoint x="650" y="200.05"/>
            </Array>
          </mxGeometry>
        </mxCell>
        <mxCell id="EJBfui5_tGNSrQ5UJPhN-73" value="Possible candidates for further skipping." style="text;html=1;strokeColor=none;fillColor=none;align=center;verticalAlign=middle;whiteSpace=wrap;rounded=0;" parent="EJBfui5_tGNSrQ5UJPhN-1" vertex="1">
          <mxGeometry x="630.32" y="170.00000000000006" width="229.68" height="20" as="geometry"/>
        </mxCell>
        <mxCell id="EJBfui5_tGNSrQ5UJPhN-74" value="" style="curved=1;endArrow=classic;html=1;strokeWidth=1;fontColor=#82B366;dashed=1;dashPattern=1 2;" parent="EJBfui5_tGNSrQ5UJPhN-1" source="EJBfui5_tGNSrQ5UJPhN-73" target="EJBfui5_tGNSrQ5UJPhN-20" edge="1">
          <mxGeometry width="50" height="50" relative="1" as="geometry">
            <mxPoint x="744.9533333333335" y="80.00000000000006" as="sourcePoint"/>
            <mxPoint x="769.3673378160188" y="230.00221516891912" as="targetPoint"/>
            <Array as="points">
              <mxPoint x="840" y="200.05"/>
            </Array>
          </mxGeometry>
        </mxCell>
        <mxCell id="EJBfui5_tGNSrQ5UJPhN-104" value="&lt;b&gt;Legend&lt;/b&gt;" style="text;html=1;strokeColor=none;align=center;verticalAlign=middle;whiteSpace=wrap;rounded=0;fillColor=#a8ca40;fontColor=#FFFFFF;" parent="EJBfui5_tGNSrQ5UJPhN-1" vertex="1">
          <mxGeometry x="1040.21" y="294.58000000000004" width="219.79" height="20" as="geometry"/>
        </mxCell>
        <mxCell id="EJBfui5_tGNSrQ5UJPhN-106" value="Skipped sampling point" style="text;html=1;strokeColor=none;fillColor=none;align=left;verticalAlign=middle;whiteSpace=wrap;rounded=0;" parent="EJBfui5_tGNSrQ5UJPhN-1" vertex="1">
          <mxGeometry x="1090.63" y="384.58000000000004" width="169.37" height="20" as="geometry"/>
        </mxCell>
        <mxCell id="EJBfui5_tGNSrQ5UJPhN-108" value="" style="ellipse;whiteSpace=wrap;html=1;aspect=fixed;fillColor=#d5e8d4;strokeColor=#82b366;rotation=0;" parent="EJBfui5_tGNSrQ5UJPhN-1" vertex="1">
          <mxGeometry x="1049.7899999999995" y="324.58000000000004" width="20.42" height="20.42" as="geometry"/>
        </mxCell>
        <mxCell id="EJBfui5_tGNSrQ5UJPhN-109" value="Sampling point" style="text;html=1;strokeColor=none;fillColor=none;align=left;verticalAlign=middle;whiteSpace=wrap;rounded=0;" parent="EJBfui5_tGNSrQ5UJPhN-1" vertex="1">
          <mxGeometry x="1090.63" y="324.58000000000004" width="169.37" height="20" as="geometry"/>
        </mxCell>
        <mxCell id="EJBfui5_tGNSrQ5UJPhN-112" value="" style="ellipse;whiteSpace=wrap;html=1;aspect=fixed;fillColor=#E6E6E6;strokeColor=#B3B3B3;rotation=0;" parent="EJBfui5_tGNSrQ5UJPhN-1" vertex="1">
          <mxGeometry x="1049.7899999999995" y="384.58000000000004" width="20.42" height="20.42" as="geometry"/>
        </mxCell>
        <mxCell id="EJBfui5_tGNSrQ5UJPhN-113" value="" style="curved=1;html=1;strokeColor=#D79B00;fontColor=#000000;fontSize=11;rounded=0;strokeWidth=3;" parent="EJBfui5_tGNSrQ5UJPhN-1" edge="1">
          <mxGeometry width="50" height="50" relative="1" as="geometry">
            <mxPoint x="1039.9999999999995" y="354.58000000000004" as="sourcePoint"/>
            <mxPoint x="1079.9999999999995" y="354.58000000000004" as="targetPoint"/>
            <Array as="points"/>
          </mxGeometry>
        </mxCell>
        <mxCell id="EJBfui5_tGNSrQ5UJPhN-114" value="&lt;span style=&quot;text-align: right&quot;&gt;Route from underlying router&lt;/span&gt;" style="text;html=1;strokeColor=none;fillColor=none;align=left;verticalAlign=middle;whiteSpace=wrap;rounded=0;" parent="EJBfui5_tGNSrQ5UJPhN-1" vertex="1">
          <mxGeometry x="1090.63" y="344.58000000000004" width="169.37" height="20" as="geometry"/>
        </mxCell>
        <mxCell id="J7vECwJzx2wNJVJuYmsy-0" value="" style="endArrow=none;html=1;strokeWidth=1;fontColor=#82B366;strokeColor=#FF0000;" parent="EJBfui5_tGNSrQ5UJPhN-1" edge="1">
          <mxGeometry width="50" height="50" relative="1" as="geometry">
            <mxPoint x="760.8899999999999" y="240" as="sourcePoint"/>
            <mxPoint x="760.8899999999999" y="260" as="targetPoint"/>
          </mxGeometry>
        </mxCell>
        <mxCell id="7aaxEyn1EPv1xrWclin2-0" value="" style="endArrow=none;html=1;strokeWidth=1;fontColor=#82B366;strokeColor=#FF0000;" parent="EJBfui5_tGNSrQ5UJPhN-1" edge="1">
          <mxGeometry width="50" height="50" relative="1" as="geometry">
            <mxPoint x="690.4199999999998" y="240.05" as="sourcePoint"/>
            <mxPoint x="690.4199999999998" y="260.05" as="targetPoint"/>
          </mxGeometry>
        </mxCell>
        <mxCell id="hzJdnRRcntgvCmnxu-77-0" value="&lt;font&gt;Option with minimal distance skipped:&lt;/font&gt;" style="text;html=1;strokeColor=none;fillColor=none;align=left;verticalAlign=middle;whiteSpace=wrap;rounded=0;" parent="EJBfui5_tGNSrQ5UJPhN-1" vertex="1">
          <mxGeometry x="570.1" y="380" width="210" height="20" as="geometry"/>
        </mxCell>
        <mxCell id="hzJdnRRcntgvCmnxu-77-1" value="" style="endArrow=none;html=1;dashed=1;" parent="EJBfui5_tGNSrQ5UJPhN-1" edge="1">
          <mxGeometry width="50" height="50" relative="1" as="geometry">
            <mxPoint x="509.7900000000001" y="360" as="sourcePoint"/>
            <mxPoint x="1010" y="360" as="targetPoint"/>
          </mxGeometry>
        </mxCell>
        <mxCell id="hzJdnRRcntgvCmnxu-77-2" value="" style="shape=flexArrow;endArrow=classic;html=1;fontColor=#000000;" parent="EJBfui5_tGNSrQ5UJPhN-1" edge="1">
          <mxGeometry width="50" height="50" relative="1" as="geometry">
            <mxPoint x="510.31000000000006" y="389.5" as="sourcePoint"/>
            <mxPoint x="560.3100000000001" y="389.5" as="targetPoint"/>
          </mxGeometry>
        </mxCell>
        <mxCell id="hzJdnRRcntgvCmnxu-77-3" value="&lt;font&gt;(`150 + x &amp;gt;= 120 + x`)&lt;/font&gt;" style="text;html=1;strokeColor=none;fillColor=none;align=left;verticalAlign=middle;whiteSpace=wrap;rounded=0;" parent="EJBfui5_tGNSrQ5UJPhN-1" vertex="1">
          <mxGeometry x="809.48" y="380.41999999999996" width="140.62" height="20" as="geometry"/>
        </mxCell>
        <mxCell id="hzJdnRRcntgvCmnxu-77-4" value="5" style="ellipse;whiteSpace=wrap;html=1;aspect=fixed;fillColor=#E6E6E6;strokeColor=#B3B3B3;rotation=0;fontStyle=1;fontColor=#FF0000;" parent="EJBfui5_tGNSrQ5UJPhN-1" vertex="1">
          <mxGeometry x="779.47" y="379.7900000000001" width="20.42" height="20.42" as="geometry"/>
        </mxCell>
        <mxCell id="cfSIj7fAvQ62UuaxLRtI-0" value="" style="curved=1;html=1;strokeColor=#FF0000;fontColor=#000000;fontSize=11;rounded=0;strokeWidth=3;dashed=1;dashPattern=1 1;" parent="EJBfui5_tGNSrQ5UJPhN-1" edge="1">
          <mxGeometry width="50" height="50" relative="1" as="geometry">
            <mxPoint x="1040.2099999999996" y="374.63" as="sourcePoint"/>
            <mxPoint x="1080.2099999999996" y="374.63" as="targetPoint"/>
            <Array as="points"/>
          </mxGeometry>
        </mxCell>
        <mxCell id="cfSIj7fAvQ62UuaxLRtI-1" value="&lt;span style=&quot;text-align: right&quot;&gt;Impossible to route any further&lt;/span&gt;" style="text;html=1;strokeColor=none;fillColor=none;align=left;verticalAlign=middle;whiteSpace=wrap;rounded=0;" parent="EJBfui5_tGNSrQ5UJPhN-1" vertex="1">
          <mxGeometry x="1090.84" y="364.63" width="169.16" height="20" as="geometry"/>
        </mxCell>
        <mxCell id="Ofgf3XeE8AkP56P3oEVM-2" value="" style="endArrow=classic;startArrow=classic;html=1;strokeWidth=1;fontColor=#82B366;strokeColor=#B3B3B3;" parent="EJBfui5_tGNSrQ5UJPhN-1" edge="1">
          <mxGeometry width="50" height="50" relative="1" as="geometry">
            <mxPoint x="749.7900000000001" y="294.65999999999997" as="sourcePoint"/>
            <mxPoint x="799.89" y="295.08000000000004" as="targetPoint"/>
          </mxGeometry>
        </mxCell>
        <mxCell id="Ofgf3XeE8AkP56P3oEVM-3" value="" style="shape=curlyBracket;whiteSpace=wrap;html=1;rounded=1;rotation=-90;strokeColor=#B3B3B3;" parent="EJBfui5_tGNSrQ5UJPhN-1" vertex="1">
          <mxGeometry x="765.01" y="285.12" width="20" height="49.93" as="geometry"/>
        </mxCell>
        <mxCell id="Ofgf3XeE8AkP56P3oEVM-4" value="&lt;font&gt;`x`&lt;/font&gt;" style="text;html=1;strokeColor=none;fillColor=none;align=center;verticalAlign=middle;whiteSpace=wrap;rounded=0;" parent="EJBfui5_tGNSrQ5UJPhN-1" vertex="1">
          <mxGeometry x="759.86" y="320.04999999999995" width="30.3" height="20" as="geometry"/>
        </mxCell>
      </root>
    </mxGraphModel>
  </diagram>
</mxfile>
